<?xml version="1.0" standalone="no"?>
<!DOCTYPE svg PUBLIC "-//W3C//DTD SVG 20010904//EN"
 "http://www.w3.org/TR/2001/REC-SVG-20010904/DTD/svg10.dtd">
<svg version="1.0" xmlns="http://www.w3.org/2000/svg"
 width="739.000000pt" height="874.000000pt" viewBox="0 0 739.000000 874.000000"
 preserveAspectRatio="xMidYMid meet">

<g transform="translate(0.000000,874.000000) scale(0.100000,-0.100000)"
fill="#000000" stroke="none">
<path d="M2640 8122 l0 -560 -120 -344 c-65 -189 -190 -552 -276 -808 -87
-256 -159 -467 -160 -468 -1 -2 -117 61 -256 140 l-253 144 -5 -920 -5 -921
-59 -165 c-80 -225 -131 -338 -214 -474 -309 -502 -500 -1126 -541 -1773 -11
-177 -29 -230 -95 -291 -23 -21 -68 -49 -100 -62 l-59 -25 6 -165 c15 -457
233 -1133 435 -1342 58 -61 62 -48 62 184 0 320 -20 454 -90 593 -52 103 -52
135 -2 185 78 79 173 73 212 -12 28 -61 25 -86 -15 -143 -67 -93 -70 -119 -67
-490 2 -181 7 -333 11 -338 4 -4 286 -10 627 -13 842 -7 4761 -34 4957 -34
l157 0 -2 802 -3 803 -2645 5 c-2483 5 -2647 6 -2683 22 -66 30 -114 76 -146
139 -44 88 -55 154 -48 299 8 165 37 277 181 700 l115 335 0 -694 1 -694 80 5
c44 3 82 7 84 9 2 2 0 780 -5 1729 -5 949 -8 1899 -7 2112 l3 388 120 -68
c106 -60 283 -160 670 -377 l110 -62 3 -1857 2 -1856 76 0 77 0 -7 523 c-10
865 -12 3603 -2 4366 l9 714 35 -44 c69 -84 207 -221 277 -273 148 -111 301
-177 469 -202 55 -8 101 -16 102 -17 1 -1 5 -565 9 -1253 l7 -1252 -54 -17
c-153 -51 -313 -147 -430 -257 l-67 -63 -7 -1112 -7 -1113 65 0 65 0 6 126 c8
146 15 162 105 245 70 64 202 129 330 163 411 109 914 7 1054 -213 27 -44 28
-48 28 -188 l0 -144 73 3 72 3 -3 44 c-3 39 -2 43 15 36 10 -4 61 -18 113 -32
74 -20 127 -27 245 -30 237 -8 414 31 640 141 163 79 281 163 410 291 238 235
380 506 442 840 23 127 23 405 -1 549 -43 263 -163 579 -314 831 -108 180
-388 505 -542 629 -204 164 -427 287 -715 393 -229 85 -593 163 -765 163 -36
0 -70 4 -76 8 -5 4 -18 30 -29 57 -91 247 -1311 3018 -1319 2995 -76 -239
-171 -531 -189 -585 l-24 -69 -6 213 c-4 118 -7 265 -7 328 l0 113 -47 0 c-27
0 -58 3 -70 6 l-23 6 0 -560z m544 -807 c60 -140 107 -257 104 -260 -10 -10
-186 114 -256 179 l-70 67 22 72 c25 80 75 197 85 197 3 0 55 -115 115 -255z
m-546 -1523 l-3 -169 -107 60 -106 60 48 136 c67 190 103 285 137 361 l28 65
3 -172 c1 -95 1 -249 0 -341z m1230 -77 c28 -66 49 -121 47 -123 -1 -2 -26 -9
-54 -17 l-51 -13 0 46 c0 26 -3 92 -6 147 -5 69 -3 97 4 90 6 -5 33 -64 60
-130z m859 -520 c404 -57 732 -230 1039 -547 425 -439 662 -982 623 -1429 -41
-473 -382 -890 -834 -1021 -68 -19 -103 -23 -230 -23 -168 0 -227 13 -356 81
l-66 35 -6 87 c-4 48 -7 215 -8 372 l-1 285 38 3 c57 5 160 -16 242 -49 93
-37 186 -97 283 -182 41 -37 94 -81 117 -98 l41 -30 -50 123 c-106 257 -366
874 -479 1138 -244 568 -323 746 -391 881 l-38 76 -89 12 c-105 13 -318 15
-326 2 -3 -5 43 -123 103 -262 60 -140 122 -286 139 -326 l31 -72 -52 21 c-29
12 -101 35 -162 51 -103 28 -122 30 -291 31 l-182 1 -7 280 c-3 154 -5 325 -3
379 l3 100 90 23 c81 20 296 57 385 66 95 10 345 5 437 -8z m-446 -1028 c172
-45 345 -135 432 -225 l37 -38 -2 -203 -3 -203 -27 21 c-95 75 -285 156 -448
192 -126 28 -376 33 -500 10 -160 -29 -369 -111 -488 -193 l-44 -30 4 202 3
203 66 61 c115 106 257 176 440 215 138 30 394 24 530 -12z m-45 -601 c153
-33 313 -105 423 -191 98 -75 92 -55 89 -283 l-3 -202 -45 31 c-117 79 -283
147 -443 180 -130 28 -358 30 -493 6 -157 -28 -356 -107 -474 -186 l-45 -31
-3 186 c-2 134 1 193 10 212 22 46 148 141 253 193 102 49 205 82 311 99 84
13 336 5 420 -14z m-1 -620 c161 -35 310 -103 426 -192 92 -71 90 -62 87 -286
l-3 -195 -87 52 c-424 256 -971 240 -1391 -40 l-29 -18 4 201 3 201 30 31
c117 123 334 227 541 260 84 13 336 5 419 -14z m-2518 -1596 c23 -52 42 -101
42 -107 1 -8 -12 -13 -33 -13 -26 0 -36 5 -41 20 -5 16 -15 20 -50 20 -34 0
-44 -4 -48 -20 -4 -15 -14 -20 -41 -20 -20 0 -36 2 -36 5 0 6 35 92 64 158 26
57 27 58 64 55 36 -3 37 -4 79 -98z m234 71 c31 -32 35 -50 17 -84 -17 -34
-39 -46 -80 -47 -35 0 -38 -2 -38 -30 0 -28 -3 -30 -35 -30 -19 0 -35 3 -35 8
-1 4 -2 53 -3 110 l-2 102 73 0 c68 0 76 -2 103 -29z m217 2 c-3 -26 -7 -28
-50 -31 -61 -4 -63 -22 -3 -22 43 0 45 -1 45 -30 0 -29 -2 -30 -45 -30 -25 0
-45 -4 -45 -10 0 -5 25 -10 55 -10 54 0 55 0 55 -30 l0 -30 -90 0 -90 0 0 110
0 110 86 0 85 0 -3 -27z m121 1 l20 -25 17 25 c13 21 24 26 56 26 l40 0 -36
-50 c-20 -28 -36 -52 -36 -55 0 -3 16 -27 35 -54 19 -26 35 -51 35 -55 0 -3
-18 -6 -40 -6 -34 0 -42 4 -56 32 l-16 31 -20 -31 c-17 -27 -26 -32 -59 -32
-21 0 -39 3 -39 6 0 4 16 28 35 54 19 26 35 50 35 54 0 3 -16 28 -36 56 l-36
50 40 0 c32 0 45 -6 61 -26z m393 14 c12 -9 14 -19 8 -34 -8 -19 -14 -21 -56
-16 -56 6 -54 -12 2 -21 45 -8 74 -32 74 -64 0 -53 -72 -84 -148 -63 -46 12
-47 13 -32 40 9 16 18 19 55 13 60 -8 59 11 0 26 -33 8 -49 19 -57 36 -14 32
2 72 34 85 34 13 102 12 120 -2z m228 -18 c0 -27 -3 -30 -30 -30 l-30 0 0 -80
0 -80 -40 0 -40 0 0 80 0 80 -30 0 c-27 0 -30 3 -30 30 l0 30 100 0 100 0 0
-30z m191 1 c34 -34 36 -55 10 -96 -18 -29 -18 -31 1 -62 l20 -33 -41 0 c-35
0 -43 4 -56 30 -20 39 -35 38 -35 -1 0 -29 -2 -30 -37 -27 l-38 3 -3 108 -3
107 76 0 c71 0 79 -2 106 -29z m129 -46 c0 -58 3 -77 15 -81 31 -12 45 15 45
87 l0 69 35 0 35 0 0 -79 c0 -63 -4 -83 -20 -104 -40 -50 -146 -43 -175 13 -9
18 -15 57 -15 100 l0 70 40 0 40 0 0 -75z m340 60 c27 -14 30 -14 30 0 0 12
18 15 106 15 l105 0 -3 -27 c-2 -23 -8 -29 -35 -31 l-33 -3 0 -80 0 -79 -35 0
-35 0 0 79 0 79 -37 5 c-25 3 -44 -1 -55 -10 -13 -12 -20 -12 -36 -2 -48 30
-97 -21 -66 -68 16 -25 35 -29 65 -13 22 12 59 -3 59 -24 0 -16 -58 -46 -89
-46 -64 0 -121 54 -121 115 0 80 102 131 180 90z m320 -54 c0 -72 14 -99 45
-87 12 4 15 23 15 81 l0 75 41 0 41 0 -4 -80 c-3 -71 -6 -83 -31 -107 -23 -23
-36 -28 -78 -28 -43 0 -54 4 -75 28 -21 25 -24 38 -24 108 l0 79 35 0 35 0 0
-69z m323 58 c46 -21 60 -80 28 -121 -19 -23 -19 -24 0 -48 26 -35 24 -40 -18
-40 -32 0 -41 5 -55 30 -22 38 -38 38 -38 0 0 -28 -3 -30 -35 -30 l-35 0 0
110 0 110 65 0 c35 0 75 -5 88 -11z m247 -20 c0 -27 -3 -30 -27 -29 -50 4 -73
0 -73 -10 0 -5 20 -10 45 -10 43 0 45 -1 45 -30 0 -29 -2 -30 -45 -30 -25 0
-45 -4 -45 -10 0 -5 25 -10 55 -10 55 0 55 0 55 -30 l0 -31 -92 3 -93 3 -2
108 -1 107 89 0 89 0 0 -31z m195 19 c3 -3 3 -17 0 -31 -6 -23 -10 -24 -53
-19 -56 5 -47 -9 16 -27 87 -25 71 -109 -24 -127 -17 -3 -49 -1 -71 5 -40 11
-41 12 -30 40 9 25 14 28 34 20 30 -11 73 -12 73 -1 0 4 -20 13 -45 20 -54 14
-82 50 -66 81 21 39 53 53 108 48 29 -2 55 -6 58 -9z m302 -1 c3 -4 2 -17 -4
-29 -8 -19 -16 -22 -51 -19 -52 3 -56 -14 -6 -22 45 -8 74 -32 74 -64 0 -53
-72 -84 -148 -63 -46 12 -47 13 -32 40 9 16 18 18 62 13 63 -8 59 9 -7 26 -71
18 -87 82 -27 116 27 15 124 16 139 2z m203 -2 c118 -61 47 -224 -86 -199 -70
13 -111 92 -80 153 29 56 105 77 166 46z m160 -65 l0 -80 50 0 c49 0 50 -1 50
-30 l0 -30 -85 0 -85 0 0 110 0 110 35 0 35 0 0 -80z m190 11 c0 -72 13 -97
44 -85 13 5 16 21 16 80 l0 74 140 0 140 0 0 -30 c0 -27 -3 -30 -30 -30 l-30
0 0 -80 0 -80 -40 0 -40 0 0 80 0 80 -29 0 c-27 0 -29 -3 -33 -51 -6 -63 -38
-98 -94 -105 -80 -10 -124 45 -124 154 l0 62 40 0 40 0 0 -69z m440 -41 l0
-110 -40 0 -40 0 0 110 0 110 40 0 40 0 0 -110z m200 95 c98 -51 59 -197 -53
-199 -75 -2 -127 43 -127 109 0 80 102 131 180 90z m187 -27 l43 -42 0 42 0
42 40 0 40 0 0 -110 0 -110 -29 0 c-23 0 -41 12 -75 48 l-46 47 0 -47 0 -48
-35 0 -35 0 0 110 0 110 27 0 c19 0 41 -14 70 -42z m297 32 c23 -8 25 -12 15
-33 -10 -22 -16 -24 -57 -19 -56 5 -47 -9 16 -27 55 -15 73 -48 48 -86 -23
-34 -61 -48 -116 -41 -53 7 -64 17 -55 45 6 19 11 21 56 15 55 -7 70 9 17 20
-51 10 -78 33 -78 66 0 56 81 88 154 60z m-4094 -620 l0 -70 -415 0 -415 0 0
70 0 70 415 0 415 0 0 -70z m740 0 l0 -70 -185 0 -185 0 0 70 0 70 185 0 185
0 0 -70z m1260 0 l0 -70 -415 0 -415 0 0 70 0 70 415 0 415 0 0 -70z m740 0
l0 -70 -180 0 -180 0 0 70 0 70 180 0 180 0 0 -70z m1250 0 l0 -70 -415 0
-415 0 0 70 0 70 415 0 415 0 0 -70z m-1140 -450 c0 -67 -4 -110 -10 -110 -6
0 -10 43 -10 110 0 67 4 110 10 110 6 0 10 -43 10 -110z m80 0 c0 -67 -4 -110
-10 -110 -6 0 -10 43 -10 110 0 67 4 110 10 110 6 0 10 -43 10 -110z m-3711
45 c18 -30 35 -55 36 -55 2 0 18 25 35 55 17 30 36 55 41 55 14 0 12 -7 -32
-80 -24 -40 -39 -78 -38 -92 2 -13 -1 -25 -6 -28 -6 -3 -11 12 -13 33 -2 23
-19 65 -43 103 -23 38 -34 64 -26 64 7 0 28 -25 46 -55z m825 49 c32 -12 15
-23 -27 -18 -33 5 -47 2 -60 -10 -24 -24 -10 -45 39 -57 54 -14 79 -39 70 -73
-4 -18 -16 -28 -41 -35 -41 -11 -105 3 -105 23 0 11 7 11 41 -1 37 -12 44 -12
65 2 40 26 27 46 -43 64 -61 17 -79 55 -43 91 20 20 71 27 104 14z m1631 -16
c88 -78 15 -208 -100 -177 -64 18 -94 89 -61 148 29 53 115 68 161 29z m625
12 c0 -6 -27 -10 -60 -10 l-60 0 0 -35 0 -35 50 0 c28 0 50 -4 50 -10 0 -5
-22 -10 -50 -10 l-50 0 0 -40 0 -40 62 0 c43 0 59 -3 51 -11 -5 -5 -38 -9 -74
-7 l-64 3 -3 103 -3 102 76 0 c43 0 75 -4 75 -10z m-2160 -25 c0 -8 9 -15 20
-15 11 0 20 -4 20 -10 0 -5 -9 -10 -20 -10 -19 0 -21 -5 -18 -57 3 -53 5 -58
26 -56 12 2 22 -2 22 -7 0 -14 -54 -12 -68 2 -7 7 -12 35 -12 64 0 32 -5 55
-12 58 -10 5 -10 7 0 12 6 3 12 12 12 20 0 8 7 14 15 14 8 0 15 -7 15 -15z
m600 0 c0 -8 9 -15 20 -15 11 0 20 -4 20 -10 0 -5 -9 -10 -20 -10 -12 0 -21
-7 -21 -17 -7 -80 2 -107 32 -98 10 4 19 2 19 -3 0 -17 -38 -20 -59 -5 -17 11
-21 25 -21 68 0 33 -5 56 -12 59 -10 5 -10 7 0 12 6 3 12 12 12 20 0 8 7 14
15 14 8 0 15 -7 15 -15z m-1281 -30 c47 -24 56 -78 19 -112 -32 -28 -54 -34
-85 -22 -67 25 -72 102 -8 137 27 15 41 15 74 -3z m101 -37 c0 -65 9 -80 46
-81 37 0 54 27 54 85 0 26 5 48 10 48 6 0 10 -33 10 -80 0 -47 -4 -80 -10 -80
-5 0 -10 7 -10 16 0 14 -3 14 -15 4 -22 -18 -77 -15 -92 6 -15 21 -18 134 -3
134 6 0 10 -24 10 -52z m200 42 c0 -7 7 -7 20 0 34 18 44 -1 11 -21 -28 -17
-31 -24 -31 -68 0 -28 -4 -53 -10 -56 -6 -4 -10 23 -10 74 0 47 4 81 10 81 6
0 10 -5 10 -10z m490 0 c0 -6 9 -6 26 1 15 5 30 7 33 3 3 -4 0 -9 -8 -12 -34
-12 -51 -42 -51 -92 0 -27 -4 -50 -10 -50 -6 0 -10 33 -10 80 0 47 4 80 10 80
6 0 10 -4 10 -10z m120 -50 c0 -65 16 -84 58 -73 24 6 35 32 36 83 1 19 6 37
11 40 6 3 11 -23 13 -67 2 -46 -1 -73 -8 -73 -5 0 -10 4 -10 9 0 5 -13 3 -30
-5 -25 -13 -34 -13 -57 -2 -26 12 -28 18 -31 81 -2 42 1 67 8 67 6 0 10 -25
10 -60z m290 34 c18 -18 -2 -19 -30 -2 -17 11 -25 10 -48 -2 -21 -13 -27 -23
-27 -50 0 -28 5 -37 28 -48 24 -12 31 -11 52 2 25 16 45 6 22 -11 -41 -32
-111 -13 -123 33 -20 78 69 133 126 78z m190 -28 c0 -63 19 -91 54 -80 33 10
46 34 46 86 0 26 5 48 10 48 6 0 10 -31 10 -74 0 -41 -4 -78 -10 -81 -5 -3
-10 0 -10 9 0 13 -3 13 -30 0 -25 -13 -34 -13 -57 -2 -26 12 -28 18 -31 81 -2
42 1 67 8 67 6 0 10 -23 10 -54z m200 44 c0 -7 7 -7 21 0 32 18 37 1 6 -22
-23 -17 -27 -27 -27 -68 0 -27 -4 -52 -10 -55 -6 -4 -10 23 -10 74 0 47 4 81
10 81 6 0 10 -5 10 -10z m194 -11 c15 -12 26 -30 26 -44 0 -22 -3 -23 -60 -19
-67 4 -81 -12 -36 -41 18 -12 29 -13 51 -5 30 12 45 6 28 -11 -6 -6 -28 -11
-49 -11 -29 0 -44 6 -61 27 -26 29 -28 43 -12 79 21 46 72 57 113 25z m144 15
c33 -9 27 -24 -8 -18 -37 8 -66 -12 -49 -32 6 -8 21 -14 33 -14 56 0 74 -54
25 -77 -28 -13 -80 -5 -86 14 -3 9 5 9 32 0 29 -9 38 -8 52 5 19 20 9 38 -20
38 -28 0 -67 26 -67 45 0 15 37 45 55 45 5 0 20 -3 33 -6z m392 -46 c0 -60 6
-72 37 -82 36 -11 63 24 63 84 0 28 5 50 10 50 6 0 10 -31 10 -74 0 -41 -4
-78 -10 -81 -5 -3 -10 1 -10 11 0 14 -3 14 -15 4 -22 -18 -77 -15 -92 6 -15
21 -18 134 -3 134 6 0 10 -24 10 -52z m200 42 c0 -6 9 -6 24 0 36 13 40 -1 6
-21 -27 -17 -30 -23 -30 -74 0 -30 -4 -55 -10 -55 -6 0 -10 33 -10 80 0 47 4
80 10 80 6 0 10 -4 10 -10z m385 -17 l25 -28 25 28 c37 41 51 29 16 -14 l-30
-36 31 -37 c17 -20 27 -40 23 -44 -4 -4 -20 9 -36 28 l-30 35 -25 -33 c-14
-18 -30 -30 -35 -26 -5 3 4 22 21 42 29 35 29 37 12 57 -38 43 -45 55 -33 55
7 0 23 -12 36 -27z m239 6 c16 -15 0 -20 -27 -8 -37 17 -77 -10 -77 -50 0 -45
44 -68 93 -47 10 5 17 4 17 -3 0 -13 -46 -26 -75 -22 -72 11 -76 117 -5 144
18 7 61 -1 74 -14z m169 -11 c32 -38 19 -53 -45 -53 -65 -1 -73 -5 -55 -29 14
-19 49 -24 85 -12 13 4 22 3 22 -2 0 -6 -14 -15 -31 -21 -43 -15 -96 8 -105
45 -21 82 75 136 129 72z m330 5 c17 -16 24 -52 10 -54 -5 -1 -30 -2 -58 -4
-27 -2 -54 -4 -60 -4 -5 -1 3 -13 19 -27 16 -14 34 -23 40 -21 38 15 56 17 56
9 0 -6 -14 -15 -30 -21 -62 -21 -121 31 -104 92 16 55 82 70 127 30z m107 17
c25 16 50 11 76 -15 21 -22 25 -33 22 -78 -4 -68 -22 -63 -26 8 -3 63 -26 86
-68 66 -19 -8 -23 -19 -26 -66 -4 -77 -22 -74 -26 4 -4 75 2 98 21 83 8 -7 18
-7 27 -2z m264 -11 c16 -15 0 -20 -27 -8 -53 24 -99 -37 -64 -85 14 -19 40
-23 75 -12 13 4 22 3 22 -3 0 -13 -47 -26 -75 -22 -72 11 -76 117 -5 144 18 7
61 -1 74 -14z m169 -11 c9 -11 17 -26 17 -33 0 -15 -41 -24 -92 -21 -41 3 -45
-1 -25 -28 14 -19 49 -24 85 -12 13 4 22 3 22 -2 0 -6 -14 -15 -31 -21 -43
-15 -96 8 -105 45 -21 82 75 136 129 72z m-2169 -97 c3 -5 0 -24 -6 -42 l-12
-34 -7 35 c-4 19 -5 38 -3 42 7 11 22 10 28 -1z"/>
<path d="M1626 1355 c-9 -23 -8 -25 9 -25 17 0 19 9 6 28 -7 11 -10 10 -15 -3z"/>
<path d="M1850 1365 c0 -26 7 -29 34 -19 27 10 20 44 -9 44 -20 0 -25 -5 -25
-25z"/>
<path d="M3000 1364 c0 -21 4 -25 23 -22 14 2 23 11 25 26 3 18 -1 22 -22 22
-21 0 -26 -5 -26 -26z"/>
<path d="M4130 1364 c0 -21 4 -25 23 -22 14 2 23 11 25 26 3 18 -1 22 -22 22
-21 0 -26 -5 -26 -26z"/>
<path d="M5072 1378 c-19 -19 -15 -66 7 -78 29 -15 39 -13 57 15 15 23 15 27
0 50 -18 27 -45 32 -64 13z"/>
<path d="M6064 1382 c-22 -14 -25 -49 -5 -73 16 -21 22 -22 45 -11 19 8 26 19
26 40 0 43 -34 66 -66 44z"/>
<path d="M4103 438 c-45 -22 -51 -103 -9 -137 26 -22 83 -18 111 9 71 67 -12
171 -102 128z"/>
<path d="M1920 380 c-11 -11 -20 -24 -20 -30 0 -15 23 -60 31 -60 4 0 14 -3
23 -6 18 -7 66 37 66 61 0 21 -36 55 -60 55 -11 0 -29 -9 -40 -20z"/>
<path d="M3708 389 c-36 -21 -21 -39 32 -39 52 0 60 8 34 34 -18 18 -41 20
-66 5z"/>
<path d="M5215 380 c-24 -27 -17 -32 46 -28 l54 3 -22 23 c-28 27 -54 28 -78
2z"/>
<path d="M5548 378 l-23 -23 54 -3 c63 -4 70 1 46 28 -24 26 -50 25 -77 -2z"/>
<path d="M6089 381 c-32 -26 -22 -33 42 -29 l54 3 -22 23 c-28 27 -44 28 -74
3z"/>
<path d="M2950 5495 l0 -1165 45 0 45 0 0 1165 0 1165 -45 0 -45 0 0 -1165z"/>
<path d="M3170 5495 l0 -1165 40 0 40 0 0 1165 0 1165 -40 0 -40 0 0 -1165z"/>
<path d="M3400 5495 l0 -1165 45 0 45 0 0 1165 0 1165 -45 0 -45 0 0 -1165z"/>
<path d="M1850 5130 l0 -50 310 0 310 0 0 50 0 50 -310 0 -310 0 0 -50z"/>
<path d="M1850 4690 l0 -50 310 0 310 0 0 50 0 50 -310 0 -310 0 0 -50z"/>
<path d="M1850 4236 l0 -55 310 -1 310 0 0 55 0 55 -310 0 -310 0 0 -54z"/>
<path d="M2152 3788 l3 -53 155 0 155 0 3 53 3 52 -161 0 -161 0 3 -52z"/>
<path d="M1860 3330 l0 -50 305 0 305 0 0 50 0 50 -305 0 -305 0 0 -50z"/>
<path d="M1860 2890 l0 -50 305 0 305 0 0 50 0 50 -305 0 -305 0 0 -50z"/>
<path d="M2170 2440 l0 -50 150 0 150 0 0 50 0 50 -150 0 -150 0 0 -50z"/>
</g>
</svg>
