<?xml version="1.0" standalone="no"?>
<!DOCTYPE svg PUBLIC "-//W3C//DTD SVG 20010904//EN"
 "http://www.w3.org/TR/2001/REC-SVG-20010904/DTD/svg10.dtd">
<svg version="1.0" xmlns="http://www.w3.org/2000/svg"
 width="586.000000pt" height="257.000000pt" viewBox="0 0 586.000000 257.000000"
 preserveAspectRatio="xMidYMid meet">

<g transform="translate(0.000000,257.000000) scale(0.100000,-0.100000)"
fill="#000000" stroke="none">
<path d="M1012 2343 c-14 -26 -482 -1103 -482 -1108 0 -3 86 -4 191 -3 l191 3
37 98 36 97 215 -2 214 -3 37 -95 37 -95 192 -3 192 -2 -6 22 c-3 13 -111 266
-240 563 l-235 540 -185 3 c-169 2 -186 1 -194 -15z m241 -496 c26 -68 47
-128 47 -135 0 -9 -29 -12 -100 -12 -73 0 -100 3 -100 13 0 19 92 257 100 257
3 0 28 -55 53 -123z"/>
<path d="M1940 1800 l0 -560 190 0 190 0 0 134 0 133 143 6 c267 11 402 79
484 244 35 72 37 79 37 176 0 82 -5 114 -23 160 -32 81 -115 168 -197 208
-110 52 -166 59 -511 59 l-313 0 0 -560z m569 264 c101 -20 131 -160 50 -229
-28 -23 -38 -25 -135 -25 l-104 0 0 130 0 130 79 0 c43 0 93 -3 110 -6z"/>
<path d="M3110 1800 l0 -560 465 0 465 0 0 140 0 140 -280 0 -280 0 0 75 0 75
238 2 237 3 3 133 3 132 -241 0 -241 0 3 68 3 67 268 3 267 2 0 140 0 140
-455 0 -455 0 0 -560z"/>
<path d="M4100 2355 c0 -3 86 -127 190 -276 105 -149 190 -272 190 -274 0 -4
-369 -523 -393 -553 -8 -10 33 -12 208 -10 l218 3 88 140 c49 77 92 141 96
142 4 1 48 -61 97 -138 49 -78 94 -143 100 -145 6 -2 104 -3 217 -2 l206 3
-204 287 -204 287 191 265 c104 145 190 267 190 270 0 3 -89 6 -199 6 l-198 0
-93 -140 c-51 -77 -94 -140 -95 -140 -1 0 -44 63 -95 140 l-93 140 -208 0
c-115 0 -209 -2 -209 -5z"/>
<path d="M555 645 c-33 -32 -34 -84 -2 -112 12 -11 43 -28 69 -38 58 -21 70
-35 66 -72 -6 -56 -100 -58 -120 -3 -6 19 -17 30 -29 30 -23 0 -24 -10 -5 -55
19 -45 77 -63 139 -43 36 11 44 19 56 54 21 62 3 92 -77 124 -85 34 -104 65
-57 96 32 21 72 11 87 -21 14 -31 48 -34 48 -5 0 12 -11 32 -25 45 -19 20 -34
25 -75 25 -41 0 -56 -5 -75 -25z"/>
<path d="M770 650 c0 -17 7 -20 45 -20 l45 0 0 -140 c0 -133 1 -140 20 -140
19 0 20 7 20 140 l0 140 40 0 c33 0 40 3 40 20 0 19 -7 20 -105 20 -98 0 -105
-1 -105 -20z"/>
<path d="M1030 509 c0 -147 1 -160 18 -157 14 3 18 16 20 71 l3 68 42 -3 c41
-3 42 -4 68 -68 20 -47 33 -66 48 -68 27 -4 27 3 -8 79 l-29 64 24 22 c48 44
40 112 -16 140 -14 7 -58 13 -97 13 l-73 0 0 -161z m158 109 c19 -19 15 -66
-7 -78 -11 -5 -40 -10 -65 -10 l-46 0 0 50 0 50 53 0 c29 0 58 -5 65 -12z"/>
<path d="M1302 536 c3 -125 5 -136 27 -160 30 -32 71 -41 116 -26 55 18 65 48
65 195 0 118 -1 125 -20 125 -19 0 -20 -7 -20 -125 0 -112 -2 -127 -20 -145
-23 -23 -58 -26 -86 -6 -17 13 -19 29 -22 145 -3 123 -5 131 -24 131 -19 0
-19 -6 -16 -134z"/>
<path d="M1610 643 c-23 -21 -33 -41 -39 -80 -11 -70 3 -150 30 -179 65 -69
178 -44 195 44 6 27 4 32 -13 32 -12 0 -23 -11 -30 -30 -22 -59 -99 -65 -128
-10 -18 34 -20 138 -4 174 7 13 25 30 42 37 40 17 78 -4 92 -49 6 -21 16 -32
27 -32 22 0 24 30 3 70 -20 38 -43 50 -99 50 -36 0 -52 -6 -76 -27z"/>
<path d="M1830 650 c0 -17 7 -20 45 -20 l45 0 0 -140 c0 -133 1 -140 20 -140
19 0 20 7 20 140 l0 140 40 0 c33 0 40 3 40 20 0 19 -7 20 -105 20 -98 0 -105
-1 -105 -20z"/>
<path d="M2090 543 c0 -149 8 -172 65 -192 35 -12 45 -11 78 2 55 23 67 61 67
202 0 107 -1 115 -19 115 -18 0 -20 -10 -23 -124 -2 -105 -6 -127 -22 -145
-23 -25 -53 -27 -84 -5 -21 14 -22 22 -22 145 0 122 -1 129 -20 129 -19 0 -20
-7 -20 -127z"/>
<path d="M2362 513 c3 -141 5 -158 21 -161 15 -3 17 5 17 68 l0 71 47 -3 47
-3 26 -65 c20 -49 32 -66 48 -68 12 -2 22 -1 22 3 0 3 -13 37 -30 75 -28 67
-28 70 -10 80 29 15 44 73 28 107 -19 40 -53 53 -141 53 l-78 0 3 -157z m166
105 c19 -19 15 -66 -7 -78 -11 -5 -42 -10 -70 -10 l-51 0 0 50 0 50 58 0 c32
0 63 -5 70 -12z"/>
<path d="M2640 510 l0 -160 100 0 c93 0 100 1 100 20 0 18 -7 20 -80 20 l-80
0 0 50 0 49 67 3 c55 2 68 6 71 21 3 15 -5 17 -67 17 l-71 0 0 50 0 50 80 0
c73 0 80 2 80 20 0 19 -7 20 -100 20 l-100 0 0 -160z"/>
<path d="M2916 649 c-20 -16 -26 -29 -26 -58 0 -46 21 -67 92 -96 59 -24 74
-41 64 -78 -5 -20 -14 -28 -40 -32 -42 -8 -72 7 -80 40 -7 28 -46 36 -46 10 0
-37 30 -74 70 -85 70 -19 132 12 144 71 10 50 -16 84 -81 109 -32 12 -63 26
-70 32 -21 17 -15 46 12 64 32 21 72 11 87 -21 6 -14 20 -25 31 -25 16 0 18 5
13 28 -10 42 -41 62 -96 62 -33 0 -55 -6 -74 -21z"/>
<path d="M3275 645 c-51 -50 -23 -117 63 -148 61 -22 75 -37 70 -74 -6 -56
-100 -58 -120 -3 -11 32 -48 43 -48 15 0 -66 76 -108 153 -83 36 11 44 19 56
54 21 62 3 92 -77 124 -85 34 -104 65 -57 96 32 21 72 11 87 -21 14 -31 48
-34 48 -5 0 12 -11 32 -25 45 -19 20 -34 25 -75 25 -41 0 -56 -5 -75 -25z"/>
<path d="M3559 655 c-70 -38 -78 -220 -12 -281 59 -55 150 -36 183 38 37 81
18 207 -35 242 -30 20 -101 20 -136 1z m103 -26 c26 -14 48 -68 48 -119 0
-106 -75 -166 -134 -107 -45 45 -45 169 0 214 25 25 54 29 86 12z"/>
<path d="M3810 510 l0 -160 85 0 c78 0 85 2 85 20 0 18 -7 20 -65 20 l-65 0 0
140 c0 133 -1 140 -20 140 -19 0 -20 -7 -20 -160z"/>
<path d="M4022 536 c3 -125 5 -136 27 -160 30 -32 71 -41 116 -26 55 18 65 48
65 195 0 118 -1 125 -20 125 -19 0 -20 -7 -20 -125 0 -112 -2 -127 -20 -145
-26 -26 -64 -26 -90 0 -18 18 -20 33 -20 145 0 120 -1 125 -21 125 -20 0 -20
-4 -17 -134z"/>
<path d="M4277 663 c-20 -19 -5 -33 38 -33 l45 0 0 -140 c0 -133 1 -140 20
-140 19 0 20 7 20 140 l0 140 45 0 c38 0 45 3 45 20 0 19 -7 20 -103 20 -57 0
-107 -3 -110 -7z"/>
<path d="M4530 510 c0 -153 1 -160 20 -160 19 0 20 7 20 160 0 153 -1 160 -20
160 -19 0 -20 -7 -20 -160z"/>
<path d="M4681 654 c-33 -24 -51 -74 -51 -146 0 -80 22 -127 72 -151 108 -53
201 63 169 208 -16 72 -53 105 -120 105 -27 0 -56 -7 -70 -16z m102 -26 c39
-20 46 -40 47 -121 0 -70 -3 -81 -25 -102 -31 -32 -66 -32 -102 -1 -26 23 -28
29 -28 106 0 77 2 83 28 106 31 27 48 29 80 12z"/>
<path d="M4940 510 c0 -136 2 -160 15 -160 13 0 15 20 15 122 l0 122 69 -120
c96 -167 101 -165 101 35 0 135 -2 161 -15 161 -12 0 -15 -22 -17 -115 l-3
-115 -68 115 c-38 64 -74 115 -82 115 -13 0 -15 -26 -15 -160z"/>
<path d="M5232 647 c-24 -25 -29 -75 -12 -107 5 -10 36 -28 67 -40 71 -26 83
-36 83 -66 0 -26 -34 -54 -65 -54 -29 0 -65 28 -65 51 0 12 -7 19 -20 19 -14
0 -20 -7 -20 -23 0 -58 72 -98 141 -78 47 14 69 44 69 91 0 44 -27 73 -89 95
-57 20 -71 32 -71 61 0 52 101 57 108 6 3 -16 10 -22 29 -22 19 0 24 4 19 16
-3 9 -6 20 -6 25 0 5 -9 18 -20 29 -30 30 -119 28 -148 -3z"/>
</g>
</svg>
